<?xml version="1.0" standalone="no"?>
<!DOCTYPE svg PUBLIC "-//W3C//DTD SVG 20010904//EN"
 "http://www.w3.org/TR/2001/REC-SVG-20010904/DTD/svg10.dtd">
<svg version="1.0" xmlns="http://www.w3.org/2000/svg"
 width="512.000000pt" height="512.000000pt" viewBox="0 0 512.000000 512.000000"
 preserveAspectRatio="xMidYMid meet">

<g transform="translate(0.000000,512.000000) scale(0.100000,-0.100000)"
fill="#000000" stroke="none">
<path d="M795 4320 l-480 -480 483 0 482 0 0 480 c0 264 -1 480 -3 480 -1 0
-218 -216 -482 -480z"/>
<path d="M1438 4291 c-3 -497 -4 -510 -24 -537 -11 -15 -33 -37 -48 -48 -27
-20 -40 -21 -537 -24 l-509 -3 2 -1629 c3 -1627 3 -1629 24 -1656 11 -15 33
-37 48 -48 27 -21 28 -21 1526 -21 1498 0 1499 0 1526 21 15 11 37 33 48 48
20 26 21 42 24 376 l3 349 -363 3 -363 3 -63 34 c-69 38 -110 80 -144 151 -17
36 -22 68 -26 168 l-4 122 -101 0 -101 0 -161 -160 -161 -160 -146 0 -146 0
-12 -30 c-28 -68 -129 -130 -210 -130 -124 0 -240 116 -240 240 0 124 116 240
240 240 81 0 182 -62 210 -130 l12 -30 111 0 111 0 161 160 161 160 137 0 137
0 0 80 0 80 -409 0 -409 0 -12 -30 c-28 -68 -129 -130 -210 -130 -124 0 -240
116 -240 240 0 124 116 240 240 240 81 0 182 -62 210 -130 l12 -30 409 0 409
0 0 80 0 80 -137 0 -137 0 -161 160 -161 160 -111 0 -111 0 -12 -30 c-28 -68
-129 -130 -210 -130 -124 0 -240 116 -240 240 0 124 116 240 240 240 81 0 182
-62 210 -130 l12 -30 146 0 146 0 161 -160 161 -160 101 0 102 0 3 253 c4 335
-14 297 291 603 152 153 245 239 269 249 29 12 78 15 218 15 l180 0 -2 589
c-3 578 -3 590 -24 617 -11 15 -33 37 -48 48 -27 21 -35 21 -1016 24 l-989 2
-3 -509z"/>
<path d="M3035 3200 l-160 -160 200 0 200 0 160 160 160 160 -200 0 -200 0
-160 -160z"/>
<path d="M3595 3200 l-160 -160 160 0 160 0 160 160 160 160 -160 0 -160 0
-160 -160z"/>
<path d="M4075 3200 l-160 -160 200 0 200 0 160 160 160 160 -200 0 -200 0
-160 -160z"/>
<path d="M4638 3043 l-158 -158 0 -721 0 -720 160 161 160 161 -2 717 -3 717
-157 -157z"/>
<path d="M2815 2866 c-41 -18 -83 -69 -90 -109 -3 -18 -5 -334 -3 -704 3 -660
3 -672 24 -699 11 -15 33 -37 48 -48 27 -21 36 -21 726 -21 690 0 699 0 726
21 15 11 37 33 48 48 21 27 21 38 24 777 l2 749 -240 0 -240 0 0 -397 0 -398
-160 160 -160 160 -160 -160 -160 -160 0 398 0 397 -177 0 c-125 -1 -187 -5
-208 -14z"/>
<path d="M3360 2681 l0 -198 80 81 80 81 80 -81 80 -81 0 198 0 199 -160 0
-160 0 0 -199z"/>
</g>
</svg>
